<?xml version="1.0" ?><svg id="Layer_1" style="enable-background:new 0 0 64 64;" version="1.1" viewBox="0 0 64 64" xml:space="preserve" xmlns="http://www.w3.org/2000/svg" xmlns:xlink="http://www.w3.org/1999/xlink"><style type="text/css">
	.st0{fill:#FFFFFF;}
	.st1{fill-rule:evenodd;clip-rule:evenodd;fill:#FFFFFF;}
	.st2{fill:#D2E5F0;}
	.st3{fill:#B6CFE3;}
</style><g id="XMLID_6547_"><defs><path d="M57.5,57.5c-6,6-45,6-51,0c-6-6-6-45,0-51c6-6,45-6,51,0C63.5,12.5,63.5,51.5,57.5,57.5z" id="XMLID_6548_"/></defs><use style="overflow:visible;fill:#F04D3A;" xlink:href="#XMLID_6548_"/><clipPath id="XMLID_2_"><use style="overflow:visible;" xlink:href="#XMLID_6548_"/></clipPath></g><g id="XMLID_6544_"><path class="st0" d="M27.2,34.1h5.1c-0.9,2.5-3.3,4.3-6.1,4.3c-3.4,0-6.2-2.8-6.4-6.2c-0.1-3.7,2.8-6.7,6.4-6.7   c1.7,0,3.2,0.6,4.3,1.7c0.3,0.2,0.7,0.2,0.9,0l1.9-1.7c0.3-0.3,0.3-0.7,0-1c-1.8-1.7-4.2-2.8-6.9-2.8c-5.7-0.1-10.5,4.6-10.6,10.3   c0,5.8,4.6,10.4,10.4,10.4c5.5,0,10-4.3,10.3-9.8c0-0.1,0-2.4,0-2.4h-9.4c-0.4,0-0.7,0.3-0.7,0.7v2.5   C26.5,33.8,26.8,34.1,27.2,34.1z" id="XMLID_6546_"/><path class="st0" d="M45.1,30.4v-2.5c0-0.3-0.3-0.6-0.6-0.6h-2.1c-0.3,0-0.6,0.3-0.6,0.6v2.5h-2.5   c-0.3,0-0.6,0.3-0.6,0.6v2.1c0,0.3,0.3,0.6,0.6,0.6h2.5v2.5c0,0.3,0.3,0.6,0.6,0.6h2.1c0.3,0,0.6-0.3,0.6-0.6v-2.5h2.5   c0.3,0,0.6-0.3,0.6-0.6V31c0-0.3-0.3-0.6-0.6-0.6H45.1L45.1,30.4z" id="XMLID_6545_"/></g></svg>