<?xml version="1.0" ?><svg id="Layer_1" style="enable-background:new 0 0 64 64;" version="1.1" viewBox="0 0 64 64" xml:space="preserve" xmlns="http://www.w3.org/2000/svg" xmlns:xlink="http://www.w3.org/1999/xlink"><style type="text/css">
	.st0{fill:#FFFFFF;}
	.st1{fill-rule:evenodd;clip-rule:evenodd;fill:#FFFFFF;}
	.st2{fill:#D2E5F0;}
	.st3{fill:#B6CFE3;}
</style><g id="XMLID_7349_"><defs><path d="M57.5,57.5c-6,6-45,6-51,0c-6-6-6-45,0-51c6-6,45-6,51,0C63.5,12.5,63.5,51.5,57.5,57.5z" id="XMLID_7350_"/></defs><use style="overflow:visible;fill:#704B9E;" xlink:href="#XMLID_7350_"/><clipPath id="XMLID_2_"><use style="overflow:visible;" xlink:href="#XMLID_7350_"/></clipPath></g><g id="XMLID_7341_"><path class="st0" d="M38.5,15.8H25.5c-5.3,0-9.7,4.3-9.7,9.7v13.1c0,5.3,4.3,9.7,9.7,9.7h13.1   c5.3,0,9.7-4.3,9.7-9.7V25.5C48.2,20.1,43.9,15.8,38.5,15.8z M44.9,38.5c0,3.5-2.9,6.4-6.4,6.4H25.5c-3.5,0-6.4-2.9-6.4-6.4V25.5   c0-3.5,2.9-6.4,6.4-6.4h13.1c3.5,0,6.4,2.9,6.4,6.4V38.5L44.9,38.5z" id="XMLID_7346_"/><path class="st0" d="M32,23.6c-4.6,0-8.4,3.8-8.4,8.4c0,4.6,3.8,8.4,8.4,8.4s8.4-3.8,8.4-8.4   C40.4,27.4,36.6,23.6,32,23.6z M32,37.1c-2.8,0-5.1-2.3-5.1-5.1s2.3-5.1,5.1-5.1s5.1,2.3,5.1,5.1C37.1,34.8,34.8,37.1,32,37.1z" id="XMLID_7343_"/><circle class="st0" cx="40.4" cy="23.7" id="XMLID_7342_" r="2"/></g></svg>