<?xml version="1.0" ?><svg id="Layer_1" style="enable-background:new 0 0 64 64;" version="1.1" viewBox="0 0 64 64" xml:space="preserve" xmlns="http://www.w3.org/2000/svg" xmlns:xlink="http://www.w3.org/1999/xlink"><style type="text/css">
	.st0{fill:#FFFFFF;}
	.st1{fill-rule:evenodd;clip-rule:evenodd;fill:#FFFFFF;}
	.st2{fill:#D2E5F0;}
	.st3{fill:#B6CFE3;}
</style><g id="XMLID_6245_"><defs><path d="M57.5,57.5c-6,6-45,6-51,0c-6-6-6-45,0-51c6-6,45-6,51,0C63.5,12.5,63.5,51.5,57.5,57.5z" id="XMLID_6246_"/></defs><use style="overflow:visible;fill:#3C5A9A;" xlink:href="#XMLID_6246_"/><clipPath id="XMLID_2_"><use style="overflow:visible;" xlink:href="#XMLID_6246_"/></clipPath></g><path class="st1" d="M37,21.3c1,0,2,0,3,0c0.1,0,0.2,0,0.4,0V16c-0.5-0.1-1.1-0.1-1.7-0.2c-1,0-2.1-0.1-3.1-0.1  c-1.6,0-3.1,0.4-4.4,1.3c-1.5,1.1-2.3,2.6-2.6,4.4c-0.1,0.7-0.2,1.5-0.2,2.2c0,1.2,0,2.3,0,3.5v0.4h-5v5.8h5v14.7h6.1V33.6h5  c0.3-1.9,0.5-3.9,0.8-5.9c-0.4,0-0.8,0-1.1,0c-1.4,0-4.6,0-4.6,0s0-2.9,0-4.1C34.6,21.8,35.7,21.3,37,21.3z" id="XMLID_6244_"/></svg>