<?xml version="1.0" ?><svg id="Layer_1" style="enable-background:new 0 0 64 64;" version="1.1" viewBox="0 0 64 64" xml:space="preserve" xmlns="http://www.w3.org/2000/svg" xmlns:xlink="http://www.w3.org/1999/xlink"><style type="text/css">
	.st0{fill:#FFFFFF;}
	.st1{fill-rule:evenodd;clip-rule:evenodd;fill:#FFFFFF;}
	.st2{fill:#D2E5F0;}
	.st3{fill:#B6CFE3;}
</style><g id="XMLID_9636_"><defs><path d="M57.5,57.5c-6,6-45,6-51,0c-6-6-6-45,0-51c6-6,45-6,51,0C63.5,12.5,63.5,51.5,57.5,57.5z" id="XMLID_9637_"/></defs><use style="overflow:visible;fill:#439CD6;" xlink:href="#XMLID_9637_"/><clipPath id="XMLID_2_"><use style="overflow:visible;" xlink:href="#XMLID_9637_"/></clipPath></g><path class="st0" d="M47.7,21.7c-0.7,0.3-1.5,0.6-2.2,0.8c0.8-0.8,1.5-1.8,1.8-2.9l0,0c0.1-0.3-0.2-0.6-0.5-0.4  l0,0c-1.1,0.6-2.2,1.1-3.4,1.4c-0.1,0-0.1,0-0.2,0c-0.2,0-0.4-0.1-0.6-0.2c-1.3-1.1-2.9-1.7-4.6-1.7c-0.7,0-1.5,0.1-2.2,0.3  c-2.3,0.7-4,2.6-4.6,4.9c-0.2,0.9-0.3,1.7-0.2,2.6c0,0.1,0,0.2-0.1,0.2c0,0.1-0.1,0.1-0.2,0.1c0,0,0,0,0,0c-5-0.5-9.4-2.8-12.6-6.7  l0,0c-0.2-0.2-0.5-0.2-0.6,0l0,0c-0.6,1.1-0.9,2.3-0.9,3.5c0,1.9,0.8,3.7,2.1,5c-0.6-0.1-1.1-0.3-1.6-0.6l0,0  c-0.2-0.1-0.5,0-0.5,0.3l0,0c0,2.8,1.6,5.3,4.1,6.4c0,0-0.1,0-0.1,0c-0.4,0-0.8,0-1.2-0.1l0,0c-0.3-0.1-0.5,0.2-0.4,0.5l0,0  c0.8,2.5,3,4.3,5.5,4.8c-2.1,1.4-4.6,2.2-7.2,2.2l-0.8,0c-0.2,0-0.5,0.2-0.5,0.4c-0.1,0.2,0.1,0.5,0.3,0.6c2.9,1.7,6.3,2.6,9.6,2.6  c3,0,5.7-0.6,8.2-1.7c2.3-1.1,4.3-2.6,6-4.5c1.6-1.8,2.8-3.9,3.7-6.2c0.8-2.2,1.3-4.5,1.3-6.8v-0.1c0-0.4,0.2-0.7,0.4-0.9  c1.1-0.9,2-1.9,2.8-3l0,0C48.3,21.9,48,21.5,47.7,21.7L47.7,21.7z" id="XMLID_9635_"/></svg>